<svg xmlns="http://www.w3.org/2000/svg" viewBox="0 0 92.09 13.16"><defs><style>.cls-1{fill:#231f20;}</style></defs><g id="Layer_2" data-name="Layer 2"><g id="Layer_1-2" data-name="Layer 1"><path class="cls-1" d="M1.18,3.37l-.11.2A1.53,1.53,0,0,1,.28,2.14,1.78,1.78,0,0,1,2.12.33c1,0,2.54,1,3.6,1A.44.44,0,0,0,6.21.86c0-.47-.53-.54-.89-.59V0A1.66,1.66,0,0,1,7.27,1.6,1.47,1.47,0,0,1,5.68,3.09h0V4.71l.78.91-.78.9V8.58A3.83,3.83,0,0,0,6.89,6.81h.22a.53.53,0,0,1,0,.13,3.53,3.53,0,0,1-3.39,3.7A4,4,0,0,1,0,6.43,3.74,3.74,0,0,1,2.75,2.66l.11.2A3.9,3.9,0,0,0,1.68,4.45L4.25,3.19v4.1l-2,1a2.42,2.42,0,0,0,1.85.87,2.58,2.58,0,0,0,1.3-.36V6.5l-.77-.88.77-.89V3.06c-1.11-.15-3.13-.91-3.68-.91a.7.7,0,0,0-.77.7A.57.57,0,0,0,1.18,3.37ZM1.39,6A3.55,3.55,0,0,0,2,8l.77-.37V4.32l-1.22.6A4,4,0,0,0,1.39,6Z"/><path class="cls-1" d="M10.18,9.51l.36-.29.21.3L9.3,10.69,8.1,9.51l-.45.33-.2-.32.78-.58V2.79c0-.22,0-.51-.56-.71V1.89L9.58.33H9.8v5l1.45-1.58L12.49,5,13,4.53l.21.29-.51.47V9.15c0,1.39-.4,3.06-2.43,3.06l-.36,0v-.33c.86,0,1.28-1.31,1.28-2.7V5.71L10.45,5l-.65.7V9.07Z"/><path class="cls-1" d="M13.18,9.52,13.74,9V5.45l2.79-1.69,1.18,2.07V5.9L15.19,7.71v.58l1.4,1.1,1.29-1.16.16.32-2.4,2.27L13.91,9.33l-.52.49Zm3.18-3.13L15.41,4.8l-.22.14V7.25Z"/><path class="cls-1" d="M29.72,6.82A4.1,4.1,0,0,1,25.64,11c-2.32,0-4-2-4-4.7S23.5,1.22,25.66,1L26.75.17A6.59,6.59,0,0,0,28.8,1.5l.38-.44.24.27L27.48,3.55A3.22,3.22,0,0,1,29.72,6.82ZM24,6.91a7,7,0,0,0,0-.79v-4a4.12,4.12,0,0,0-.77,2.67,12.16,12.16,0,0,0,.35,3.09A2.08,2.08,0,0,0,24,6.91Zm2.15,3.6h0V5.11l-.63.72v.22A3.43,3.43,0,0,1,25.4,7a2.3,2.3,0,0,1-1.64,1.58A2.56,2.56,0,0,0,26.11,10.51ZM25.49,4.2V5.28l2.12-2.42a13,13,0,0,1-2-1.62l-.11,0Zm2.28,2A3,3,0,0,0,26.45,5V7ZM26.45,8.39l1.74-1A3.26,3.26,0,0,0,28,6.54l-1.5.87Zm0,2.09A2.47,2.47,0,0,0,28.23,7.9V7.79l-1.78,1Z"/><path class="cls-1" d="M32.88,9.59l.34-.32.17.25-1.46,1.17L30.7,9.46l-.45.32-.16-.26.78-.58V3.06c0-.64-.05-.79-.56-1V1.89L32.21.33h.23V9.07Z"/><path class="cls-1" d="M33.27,9.48l.6-.56V5.45L36.5,3.7l1.67,1.49V8.88L35.6,10.69,34,9.32l-.49.45Zm3.45.17V5.77l-1.34-1V8.62Z"/><path class="cls-1" d="M43.48,9.1l-2.64,1.73L39.08,9.59l-.45.33-.17-.26.79-.58V2.79c0-.32-.09-.54-.56-.71V1.89L40.59.33h.22V4.92l1.48-1.11L43.48,5.1ZM40.81,5.36V8.88L42,9.71V5.81L41.34,5Z"/><path class="cls-1" d="M44.29,9A2.41,2.41,0,0,1,45.64,7a1.44,1.44,0,0,1-1-1.28,1.31,1.31,0,0,1,.73-1.15l1.28-.77,1.73,1.28.47-.44.2.29-.61.58v3.4l.56.65.51-.39,0,.26L48,10.75l-.89-1-1.24,1A1.84,1.84,0,0,1,44.29,9ZM45,5.67c0,.86,1.24,1.22,2,1.43V5.83l-1.38-1C45.32,5.06,45,5.31,45,5.67Zm.83,1.46a1.25,1.25,0,0,0-.15.62c0,.76.37,1.84,1.1,1.84a.67.67,0,0,0,.24,0V7.5A8.51,8.51,0,0,1,45.85,7.13Z"/><path class="cls-1" d="M52.36,9.59l.34-.32.17.25-1.46,1.17L50.18,9.46l-.45.32-.17-.26.79-.58V3.06c0-.64-.05-.79-.56-1V1.89L51.69.33h.22V9.07Z"/><path class="cls-1" d="M57.82,6.06V6h-.29a.62.62,0,0,0-.67.78h-.22a1.8,1.8,0,0,1-.18-.8c0-1.1.73-1.36,1.36-1.48V4.19c0-1.23.51-1.4,1.17-2a3.69,3.69,0,0,0,.56-.62l.3-.39h.34V4.47h1.6V2l-.32-.34-.39.35V1.68L62.42.41l.88.84.35-.33.2.3-.44.41V9l.34.43L64.11,9l.17.19-1.55,1.52L61.6,9.54l-.28.25-.14-.2.6-.54v-3h-1.6V9.41l.18.11-1.16,1.29a2.09,2.09,0,0,0-1.32-.49,2.21,2.21,0,0,0-1.68.83h-.36A3.36,3.36,0,0,1,58.78,9a2.83,2.83,0,0,1,1.07.21V1.61a2.63,2.63,0,0,0-.53,2v3a2.26,2.26,0,0,1-.85,2,2.56,2.56,0,0,1-1.29.49V8.75C57.69,8.42,57.82,8.08,57.82,6.06ZM55.94,2.23c0-.11.42-1.74,1.85-1.74.39,0,.8.12,1.21.12a1.6,1.6,0,0,0,1-.29l.22.13c-.37.47-1,1.47-2,1.47-.36,0-.72-.11-1.06-.11a1,1,0,0,0-.94.55Z"/><path class="cls-1" d="M68,9.39l-1.68,1.36L65.24,9.59l-.39.32-.17-.26.73-.58V5.51L65,4.93l-.45.32L64.4,5,66,3.76,66.86,5V9.07l.39.45.51-.38ZM66.15.81l1,1.31L66,3.25,65,1.94Z"/><path class="cls-1" d="M68,10.13c0-.56.19-1.05,1.11-2l-.89-.81V5.39l2.42-1.62a1,1,0,0,0,.85.59.6.6,0,0,0,.58-.56h.34a3.9,3.9,0,0,1-1,2.5l1,.86v2l-2.3,1.62a1,1,0,0,0-.87-.63.52.52,0,0,0-.55.51.42.42,0,0,0,.17.34l-.11.35A1.32,1.32,0,0,1,68,10.13Zm1.82-2.27a8.87,8.87,0,0,0-1.11,1.23,1.16,1.16,0,0,1,.81-.33,1.52,1.52,0,0,1,1.37,1V8l-.65-.6Zm1.25-1.74a3.29,3.29,0,0,0,.5-.62,1.31,1.31,0,0,1-.59.14,1.34,1.34,0,0,1-1.25-1V6.4l.48.58Z"/><path class="cls-1" d="M75.76,9.72l.38-.24.17.26-1.61,1L73.47,9.47,73,9.8l-.17-.26L73.64,9V5.71c0-.52-.32-.64-.56-.64v-.2L75,2.67h.23V4.22H76.6L76.05,5h-.84V9.08Z"/><path class="cls-1" d="M76.62,9.48l.6-.56V5.45L79.85,3.7l1.68,1.49V8.88L79,10.69,77.32,9.32l-.49.45Zm3.46.17V5.77l-1.35-1V8.62Z"/><path class="cls-1" d="M85.73,9.3,84,10.75,82.71,9.59l-.39.32-.17-.26.73-.58V5.51l-.39-.58L82,5.25,81.87,5l1.57-1.23.85,1.07.82-1.07h.12a.58.58,0,0,0,1,0h.35c-.14,1.67-.81,1.89-1.16,1.89a1.51,1.51,0,0,1-1-.56v4l.47.42.63-.5Z"/><path class="cls-1" d="M87.93,12.42a1.35,1.35,0,0,0-.88.34l-.17-.13a2,2,0,0,1,1.86-1.49,1.88,1.88,0,0,1,1.44.71.54.54,0,0,0,.43-.59c0-.56-.3-.61-.39-1.45l-1.1.88L87.44,9.33V5.54L87,5l-.46.34L86.38,5,88,3.8,88.84,5V8.49l1.36,1V5.54l-.63-.86,1.13-.88,1.06,1.45V8.81c0,1.12.34,1.11.34,1.61s-.5.73-.8,1l-2.16,1.76A1.36,1.36,0,0,0,87.93,12.42Z"/></g></g></svg>