<svg xmlns="http://www.w3.org/2000/svg" viewBox="0 0 56.03 70.79"><g id="Layer_2" data-name="Layer 2"><g id="Layer_1-2" data-name="Layer 1"><path d="M9.12,22.39l-.87,1.29a10.14,10.14,0,0,1-6.13-9.49C2.12,7.73,7.62,2.1,16.38,2.1,24,2.1,35.91,8.53,44.11,8.53c.82,0,3.64-1.25,3.79-2.89S45.61,2.21,41.72.86L40.23.48c.71-.2,6.71-1.75,11.46,2.05.66.52,4.34,3.4,4.34,8,0,6.49-5.71,10-12.21,10h-.08V31.31l6,6-6,6V57.09a37.49,37.49,0,0,0,10-11.51c.26-.52.51-1,.77-1.57a12.62,12.62,0,0,1,.33,2.11c.7,10.22-11.55,24.67-26.08,24.67C14.06,70.79,0,59.36,0,42.72c0-11,7.86-22.88,21.2-25.08l.86,1.3A27.17,27.17,0,0,0,13,29.58l19.82-8.44V48.46L16.92,55.13a19.93,19.93,0,0,0,14.31,5.78,22,22,0,0,0,10-2.35V43.24l-5.91-5.92,5.91-5.91V20.3c-8.54-1-24.13-6.09-28.35-6.09-3.13,0-5.95,1.56-5.95,4.68A3.77,3.77,0,0,0,9.12,22.39ZM4,40.34A21.71,21.71,0,0,0,8.48,53.75l5.93-2.52v-22L5,33.18A24.15,24.15,0,0,0,4,40.34Z"/></g></g></svg>