<svg xmlns="http://www.w3.org/2000/svg" viewBox="0 0 83.12 94.8"><defs><style>.cls-1{fill:#fff;}</style></defs><g id="Layer_2" data-name="Layer 2"><g id="Layer_1-2" data-name="Layer 1"><path class="cls-1" d="M22.66,34.25l-.87,1.29a10.14,10.14,0,0,1-6.13-9.49C15.66,19.59,21.17,14,29.92,14c7.61,0,19.53,6.43,27.73,6.43.82,0,3.64-1.24,3.79-2.89s-2.29-3.42-6.18-4.78l-1.49-.38c.71-.2,6.71-1.75,11.46,2.05.66.52,4.35,3.41,4.35,8,0,6.49-5.72,10-12.22,10h-.08V43.18l6,6-6,6V69a37.61,37.61,0,0,0,10-11.5l.77-1.58A11.79,11.79,0,0,1,68.4,58c.7,10.22-11.55,24.66-26.08,24.66-14.72,0-28.78-11.43-28.78-28.07,0-11,7.86-22.88,21.2-25.08l.86,1.3a27.26,27.26,0,0,0-9.08,10.64L46.33,33V60.32L30.46,67a20,20,0,0,0,14.31,5.78,22,22,0,0,0,10-2.36V55.1l-5.91-5.91,5.91-5.92V32.16c-8.54-1-24.13-6.09-28.35-6.09-3.13,0-5.95,1.57-5.95,4.68A3.76,3.76,0,0,0,22.66,34.25Zm-5.16,18A21.77,21.77,0,0,0,22,65.61L28,63.09v-22l-9.39,4A24.15,24.15,0,0,0,17.5,52.2Z"/><path class="cls-1" d="M82.93,0H.18A.18.18,0,0,0,0,.19V94.61a.19.19,0,0,0,.18.19H82.93a.2.2,0,0,0,.19-.19V.19A.19.19,0,0,0,82.93,0ZM79.84,91.67H3.28V3H79.84Z"/></g></g></svg>