<svg xmlns="http://www.w3.org/2000/svg" xmlns:xlink="http://www.w3.org/1999/xlink" viewBox="0 0 334.87 49.13"><defs><style>.cls-1{isolation:isolate;}.cls-2{fill:#414042;}.cls-10,.cls-12,.cls-13,.cls-15,.cls-16,.cls-18,.cls-19,.cls-21,.cls-22,.cls-24,.cls-25,.cls-27,.cls-28,.cls-3,.cls-30,.cls-31,.cls-33,.cls-34,.cls-36,.cls-37,.cls-39,.cls-40,.cls-42,.cls-43,.cls-45,.cls-46,.cls-48,.cls-49,.cls-51,.cls-52,.cls-54,.cls-55,.cls-57,.cls-58,.cls-6,.cls-7,.cls-9{mix-blend-mode:multiply;}.cls-4{fill:#9e9e9e;}.cls-5{fill:url(#linear-gradient);}.cls-6{fill:url(#linear-gradient-2);}.cls-7{fill:url(#linear-gradient-3);}.cls-8{fill:url(#linear-gradient-4);}.cls-9{fill:url(#linear-gradient-5);}.cls-10{fill:url(#linear-gradient-6);}.cls-11{fill:url(#linear-gradient-7);}.cls-12{fill:url(#linear-gradient-8);}.cls-13{fill:url(#linear-gradient-9);}.cls-14{fill:url(#linear-gradient-10);}.cls-15{fill:url(#linear-gradient-11);}.cls-16{fill:url(#linear-gradient-12);}.cls-17{fill:url(#linear-gradient-13);}.cls-18{fill:url(#linear-gradient-14);}.cls-19{fill:url(#linear-gradient-15);}.cls-20{fill:url(#linear-gradient-16);}.cls-21{fill:url(#linear-gradient-17);}.cls-22{fill:url(#linear-gradient-18);}.cls-23{fill:url(#linear-gradient-19);}.cls-24{fill:url(#linear-gradient-20);}.cls-25{fill:url(#linear-gradient-21);}.cls-26{fill:url(#linear-gradient-22);}.cls-27{fill:url(#linear-gradient-23);}.cls-28{fill:url(#linear-gradient-24);}.cls-29{fill:url(#linear-gradient-25);}.cls-30{fill:url(#linear-gradient-26);}.cls-31{fill:url(#linear-gradient-27);}.cls-32{fill:url(#linear-gradient-28);}.cls-33{fill:url(#linear-gradient-29);}.cls-34{fill:url(#linear-gradient-30);}.cls-35{fill:url(#linear-gradient-31);}.cls-36{fill:url(#linear-gradient-32);}.cls-37{fill:url(#linear-gradient-33);}.cls-38{fill:url(#linear-gradient-34);}.cls-39{fill:url(#linear-gradient-35);}.cls-40{fill:url(#linear-gradient-36);}.cls-41{fill:url(#linear-gradient-37);}.cls-42{fill:url(#linear-gradient-38);}.cls-43{fill:url(#linear-gradient-39);}.cls-44{fill:url(#linear-gradient-40);}.cls-45{fill:url(#linear-gradient-41);}.cls-46{fill:url(#linear-gradient-42);}.cls-47{fill:url(#linear-gradient-43);}.cls-48{fill:url(#linear-gradient-44);}.cls-49{fill:url(#linear-gradient-45);}.cls-50{fill:url(#linear-gradient-46);}.cls-51{fill:url(#linear-gradient-47);}.cls-52{fill:url(#linear-gradient-48);}.cls-53{fill:url(#linear-gradient-49);}.cls-54{fill:url(#linear-gradient-50);}.cls-55{fill:url(#linear-gradient-51);}.cls-56{fill:url(#linear-gradient-52);}.cls-57{fill:url(#linear-gradient-53);}.cls-58{fill:url(#linear-gradient-54);}</style><linearGradient id="linear-gradient" x1="4.8" y1="-2.16" x2="4.8" y2="41.13" gradientUnits="userSpaceOnUse"><stop offset="0" stop-color="#8f9193"/><stop offset="0.22" stop-color="#bbbdbf"/><stop offset="0.44" stop-color="#fff"/><stop offset="0.81" stop-color="#bbbdbf"/><stop offset="1" stop-color="#58595b"/></linearGradient><linearGradient id="linear-gradient-2" x1="0.79" y1="21.16" x2="7.11" y2="21.16" gradientUnits="userSpaceOnUse"><stop offset="0" stop-color="#58595b"/><stop offset="1" stop-color="#e5e6e7" stop-opacity="0"/></linearGradient><linearGradient id="linear-gradient-3" x1="-5535.46" y1="21.16" x2="-5529.14" y2="21.16" gradientTransform="matrix(-1, 0, 0, 1, -5526.65, 0)" xlink:href="#linear-gradient-2"/><linearGradient id="linear-gradient-4" x1="11.07" y1="-2.16" x2="11.07" y2="41.13" xlink:href="#linear-gradient"/><linearGradient id="linear-gradient-5" x1="7.06" y1="21.16" x2="13.38" y2="21.16" xlink:href="#linear-gradient-2"/><linearGradient id="linear-gradient-6" x1="-5541.73" y1="21.16" x2="-5535.41" y2="21.16" gradientTransform="matrix(-1, 0, 0, 1, -5526.65, 0)" xlink:href="#linear-gradient-2"/><linearGradient id="linear-gradient-7" x1="44.72" y1="-2.16" x2="44.72" y2="41.13" xlink:href="#linear-gradient"/><linearGradient id="linear-gradient-8" x1="40.71" y1="21.16" x2="47.04" y2="21.16" xlink:href="#linear-gradient-2"/><linearGradient id="linear-gradient-9" x1="-5575.39" y1="21.16" x2="-5569.06" y2="21.16" gradientTransform="matrix(-1, 0, 0, 1, -5526.65, 0)" xlink:href="#linear-gradient-2"/><linearGradient id="linear-gradient-10" x1="50.99" y1="-2.16" x2="50.99" y2="41.13" xlink:href="#linear-gradient"/><linearGradient id="linear-gradient-11" x1="46.98" y1="21.16" x2="53.31" y2="21.16" xlink:href="#linear-gradient-2"/><linearGradient id="linear-gradient-12" x1="-5581.66" y1="21.16" x2="-5575.33" y2="21.16" gradientTransform="matrix(-1, 0, 0, 1, -5526.65, 0)" xlink:href="#linear-gradient-2"/><linearGradient id="linear-gradient-13" x1="84.64" y1="-2.16" x2="84.64" y2="41.13" xlink:href="#linear-gradient"/><linearGradient id="linear-gradient-14" x1="80.63" y1="21.16" x2="86.96" y2="21.16" xlink:href="#linear-gradient-2"/><linearGradient id="linear-gradient-15" x1="-5615.31" y1="21.16" x2="-5608.98" y2="21.16" gradientTransform="matrix(-1, 0, 0, 1, -5526.65, 0)" xlink:href="#linear-gradient-2"/><linearGradient id="linear-gradient-16" x1="90.91" y1="-2.16" x2="90.91" y2="41.13" xlink:href="#linear-gradient"/><linearGradient id="linear-gradient-17" x1="86.9" y1="21.16" x2="93.23" y2="21.16" xlink:href="#linear-gradient-2"/><linearGradient id="linear-gradient-18" x1="-5621.58" y1="21.16" x2="-5615.25" y2="21.16" gradientTransform="matrix(-1, 0, 0, 1, -5526.65, 0)" xlink:href="#linear-gradient-2"/><linearGradient id="linear-gradient-19" x1="124.57" y1="-2.16" x2="124.57" y2="41.13" xlink:href="#linear-gradient"/><linearGradient id="linear-gradient-20" x1="120.56" y1="21.16" x2="126.88" y2="21.16" xlink:href="#linear-gradient-2"/><linearGradient id="linear-gradient-21" x1="-5655.23" y1="21.16" x2="-5648.9" y2="21.16" gradientTransform="matrix(-1, 0, 0, 1, -5526.65, 0)" xlink:href="#linear-gradient-2"/><linearGradient id="linear-gradient-22" x1="130.84" y1="-2.16" x2="130.84" y2="41.13" xlink:href="#linear-gradient"/><linearGradient id="linear-gradient-23" x1="126.82" y1="21.16" x2="133.15" y2="21.16" xlink:href="#linear-gradient-2"/><linearGradient id="linear-gradient-24" x1="-5661.5" y1="21.16" x2="-5655.17" y2="21.16" gradientTransform="matrix(-1, 0, 0, 1, -5526.65, 0)" xlink:href="#linear-gradient-2"/><linearGradient id="linear-gradient-25" x1="164.49" y1="-2.16" x2="164.49" y2="41.13" xlink:href="#linear-gradient"/><linearGradient id="linear-gradient-26" x1="160.48" y1="21.16" x2="166.81" y2="21.16" xlink:href="#linear-gradient-2"/><linearGradient id="linear-gradient-27" x1="-5695.15" y1="21.16" x2="-5688.83" y2="21.16" gradientTransform="matrix(-1, 0, 0, 1, -5526.65, 0)" xlink:href="#linear-gradient-2"/><linearGradient id="linear-gradient-28" x1="170.76" y1="-2.16" x2="170.76" y2="41.13" xlink:href="#linear-gradient"/><linearGradient id="linear-gradient-29" x1="166.75" y1="21.16" x2="173.07" y2="21.16" xlink:href="#linear-gradient-2"/><linearGradient id="linear-gradient-30" x1="-5701.42" y1="21.16" x2="-5695.1" y2="21.16" gradientTransform="matrix(-1, 0, 0, 1, -5526.65, 0)" xlink:href="#linear-gradient-2"/><linearGradient id="linear-gradient-31" x1="204.41" y1="-2.16" x2="204.41" y2="41.13" xlink:href="#linear-gradient"/><linearGradient id="linear-gradient-32" x1="200.4" y1="21.16" x2="206.73" y2="21.16" xlink:href="#linear-gradient-2"/><linearGradient id="linear-gradient-33" x1="-5735.08" y1="21.16" x2="-5728.75" y2="21.16" gradientTransform="matrix(-1, 0, 0, 1, -5526.65, 0)" xlink:href="#linear-gradient-2"/><linearGradient id="linear-gradient-34" x1="210.68" y1="-2.16" x2="210.68" y2="41.13" xlink:href="#linear-gradient"/><linearGradient id="linear-gradient-35" x1="206.67" y1="21.16" x2="213" y2="21.16" xlink:href="#linear-gradient-2"/><linearGradient id="linear-gradient-36" x1="-5741.35" y1="21.16" x2="-5735.02" y2="21.16" gradientTransform="matrix(-1, 0, 0, 1, -5526.65, 0)" xlink:href="#linear-gradient-2"/><linearGradient id="linear-gradient-37" x1="244.33" y1="-2.16" x2="244.33" y2="41.13" xlink:href="#linear-gradient"/><linearGradient id="linear-gradient-38" x1="240.32" y1="21.16" x2="246.65" y2="21.16" xlink:href="#linear-gradient-2"/><linearGradient id="linear-gradient-39" x1="-5775" y1="21.16" x2="-5768.67" y2="21.16" gradientTransform="matrix(-1, 0, 0, 1, -5526.65, 0)" xlink:href="#linear-gradient-2"/><linearGradient id="linear-gradient-40" x1="250.6" y1="-2.16" x2="250.6" y2="41.13" xlink:href="#linear-gradient"/><linearGradient id="linear-gradient-41" x1="246.59" y1="21.16" x2="252.92" y2="21.16" xlink:href="#linear-gradient-2"/><linearGradient id="linear-gradient-42" x1="-5781.27" y1="21.16" x2="-5774.94" y2="21.16" gradientTransform="matrix(-1, 0, 0, 1, -5526.65, 0)" xlink:href="#linear-gradient-2"/><linearGradient id="linear-gradient-43" x1="284.26" y1="-2.16" x2="284.26" y2="41.13" xlink:href="#linear-gradient"/><linearGradient id="linear-gradient-44" x1="280.24" y1="21.16" x2="286.57" y2="21.16" xlink:href="#linear-gradient-2"/><linearGradient id="linear-gradient-45" x1="-5814.92" y1="21.16" x2="-5808.6" y2="21.16" gradientTransform="matrix(-1, 0, 0, 1, -5526.65, 0)" xlink:href="#linear-gradient-2"/><linearGradient id="linear-gradient-46" x1="290.53" y1="-2.16" x2="290.53" y2="41.13" xlink:href="#linear-gradient"/><linearGradient id="linear-gradient-47" x1="286.51" y1="21.16" x2="292.84" y2="21.16" xlink:href="#linear-gradient-2"/><linearGradient id="linear-gradient-48" x1="-5821.19" y1="21.16" x2="-5814.86" y2="21.16" gradientTransform="matrix(-1, 0, 0, 1, -5526.65, 0)" xlink:href="#linear-gradient-2"/><linearGradient id="linear-gradient-49" x1="324.18" y1="-2.16" x2="324.18" y2="41.13" xlink:href="#linear-gradient"/><linearGradient id="linear-gradient-50" x1="320.17" y1="21.16" x2="326.49" y2="21.16" xlink:href="#linear-gradient-2"/><linearGradient id="linear-gradient-51" x1="-5854.84" y1="21.16" x2="-5848.52" y2="21.16" gradientTransform="matrix(-1, 0, 0, 1, -5526.65, 0)" xlink:href="#linear-gradient-2"/><linearGradient id="linear-gradient-52" x1="330.45" y1="-2.16" x2="330.45" y2="41.13" xlink:href="#linear-gradient"/><linearGradient id="linear-gradient-53" x1="326.44" y1="21.16" x2="332.76" y2="21.16" xlink:href="#linear-gradient-2"/><linearGradient id="linear-gradient-54" x1="-5861.11" y1="21.16" x2="-5854.79" y2="21.16" gradientTransform="matrix(-1, 0, 0, 1, -5526.65, 0)" xlink:href="#linear-gradient-2"/></defs><g class="cls-1"><g id="Layer_2" data-name="Layer 2"><g id="Layer_2-2" data-name="Layer 2"><path class="cls-2" d="M15.7,41.28a7.85,7.85,0,1,0-7.85,7.85A7.84,7.84,0,0,0,15.7,41.28Z"/><g class="cls-3"><path class="cls-4" d="M8.71,46.9A7.84,7.84,0,0,1,.86,39.05,8.09,8.09,0,0,1,1,37.49a7.83,7.83,0,1,0,14.53,5.35A7.81,7.81,0,0,1,8.71,46.9Z"/></g><path class="cls-2" d="M55.6,41.28a7.85,7.85,0,1,0-7.85,7.85A7.85,7.85,0,0,0,55.6,41.28Z"/><g class="cls-3"><path class="cls-4" d="M48.6,46.9a7.85,7.85,0,0,1-7.85-7.85,8.09,8.09,0,0,1,.16-1.56,7.83,7.83,0,1,0,14.53,5.35A7.82,7.82,0,0,1,48.6,46.9Z"/></g><path class="cls-2" d="M95.49,41.28a7.85,7.85,0,1,0-7.85,7.85A7.84,7.84,0,0,0,95.49,41.28Z"/><g class="cls-3"><path class="cls-4" d="M88.5,46.9a7.84,7.84,0,0,1-7.85-7.85,8.09,8.09,0,0,1,.16-1.56,7.75,7.75,0,0,0-1,3.79,7.85,7.85,0,0,0,15.55,1.56A7.83,7.83,0,0,1,88.5,46.9Z"/></g><path class="cls-2" d="M135.39,41.28a7.85,7.85,0,1,0-7.85,7.85A7.84,7.84,0,0,0,135.39,41.28Z"/><g class="cls-3"><path class="cls-4" d="M128.4,46.9a7.84,7.84,0,0,1-7.85-7.85,8.09,8.09,0,0,1,.15-1.56,7.83,7.83,0,1,0,14.53,5.35A7.81,7.81,0,0,1,128.4,46.9Z"/></g><path class="cls-2" d="M175.29,41.28a7.85,7.85,0,1,0-7.85,7.85A7.85,7.85,0,0,0,175.29,41.28Z"/><g class="cls-3"><path class="cls-4" d="M168.29,46.9a7.85,7.85,0,0,1-7.85-7.85,8.09,8.09,0,0,1,.16-1.56,7.74,7.74,0,0,0-1,3.79,7.85,7.85,0,0,0,15.54,1.56A7.82,7.82,0,0,1,168.29,46.9Z"/></g><path class="cls-2" d="M215.18,41.28a7.85,7.85,0,1,0-7.85,7.85A7.84,7.84,0,0,0,215.18,41.28Z"/><g class="cls-3"><path class="cls-4" d="M208.19,46.9a7.84,7.84,0,0,1-7.85-7.85,8.09,8.09,0,0,1,.16-1.56,7.75,7.75,0,0,0-1,3.79A7.85,7.85,0,0,0,215,42.84,7.82,7.82,0,0,1,208.19,46.9Z"/></g><path class="cls-2" d="M255.08,41.28a7.85,7.85,0,1,0-7.85,7.85A7.84,7.84,0,0,0,255.08,41.28Z"/><g class="cls-3"><path class="cls-4" d="M248.09,46.9a7.84,7.84,0,0,1-7.85-7.85,8.09,8.09,0,0,1,.15-1.56,7.83,7.83,0,1,0,14.53,5.35A7.81,7.81,0,0,1,248.09,46.9Z"/></g><path class="cls-2" d="M295,41.28a7.85,7.85,0,1,0-7.85,7.85A7.85,7.85,0,0,0,295,41.28Z"/><g class="cls-3"><path class="cls-4" d="M288,46.9a7.85,7.85,0,0,1-7.85-7.85,8.09,8.09,0,0,1,.16-1.56,7.83,7.83,0,1,0,14.53,5.35A7.82,7.82,0,0,1,288,46.9Z"/></g><path class="cls-2" d="M334.87,41.28A7.85,7.85,0,1,0,327,49.13,7.84,7.84,0,0,0,334.87,41.28Z"/><g class="cls-3"><path class="cls-4" d="M327.88,46.9A7.84,7.84,0,0,1,320,39.05a7.37,7.37,0,0,1,.16-1.56,7.75,7.75,0,0,0-1,3.79,7.85,7.85,0,0,0,15.55,1.56A7.83,7.83,0,0,1,327.88,46.9Z"/></g><path class="cls-5" d="M6.83,40.15a2.1,2.1,0,0,1-2,2.16h0a2.1,2.1,0,0,1-2-2.16v-38A2.1,2.1,0,0,1,4.8,0h0a2.1,2.1,0,0,1,2,2.16Z"/><path class="cls-6" d="M6.83,40.15a2.1,2.1,0,0,1-2,2.16h0a2.1,2.1,0,0,1-2-2.16v-38A2.1,2.1,0,0,1,4.8,0h0a2.1,2.1,0,0,1,2,2.16Z"/><path class="cls-7" d="M2.77,40.15a2.1,2.1,0,0,0,2,2.16h0a2.1,2.1,0,0,0,2-2.16v-38A2.1,2.1,0,0,0,4.8,0h0a2.1,2.1,0,0,0-2,2.16Z"/><path class="cls-8" d="M13.1,40.15a2.1,2.1,0,0,1-2,2.16h0a2.1,2.1,0,0,1-2-2.16v-38a2.1,2.1,0,0,1,2-2.16h0a2.1,2.1,0,0,1,2,2.16Z"/><path class="cls-9" d="M13.1,40.15a2.1,2.1,0,0,1-2,2.16h0a2.1,2.1,0,0,1-2-2.16v-38a2.1,2.1,0,0,1,2-2.16h0a2.1,2.1,0,0,1,2,2.16Z"/><path class="cls-10" d="M9,40.15a2.1,2.1,0,0,0,2,2.16h0a2.1,2.1,0,0,0,2-2.16v-38a2.1,2.1,0,0,0-2-2.16h0A2.1,2.1,0,0,0,9,2.16Z"/><path class="cls-11" d="M46.75,40.15a2.1,2.1,0,0,1-2,2.16h0a2.1,2.1,0,0,1-2-2.16v-38a2.1,2.1,0,0,1,2-2.16h0a2.1,2.1,0,0,1,2,2.16Z"/><path class="cls-12" d="M46.75,40.15a2.1,2.1,0,0,1-2,2.16h0a2.1,2.1,0,0,1-2-2.16v-38a2.1,2.1,0,0,1,2-2.16h0a2.1,2.1,0,0,1,2,2.16Z"/><path class="cls-13" d="M42.69,40.15a2.1,2.1,0,0,0,2,2.16h0a2.1,2.1,0,0,0,2-2.16v-38a2.1,2.1,0,0,0-2-2.16h0a2.1,2.1,0,0,0-2,2.16Z"/><path class="cls-14" d="M53,40.15a2.1,2.1,0,0,1-2,2.16h0a2.1,2.1,0,0,1-2-2.16v-38A2.1,2.1,0,0,1,51,0h0a2.1,2.1,0,0,1,2,2.16Z"/><path class="cls-15" d="M53,40.15a2.1,2.1,0,0,1-2,2.16h0a2.1,2.1,0,0,1-2-2.16v-38A2.1,2.1,0,0,1,51,0h0a2.1,2.1,0,0,1,2,2.16Z"/><path class="cls-16" d="M49,40.15a2.1,2.1,0,0,0,2,2.16h0a2.1,2.1,0,0,0,2-2.16v-38A2.1,2.1,0,0,0,51,0h0a2.1,2.1,0,0,0-2,2.16Z"/><path class="cls-17" d="M86.67,40.15a2.1,2.1,0,0,1-2,2.16h0a2.09,2.09,0,0,1-2-2.16v-38a2.09,2.09,0,0,1,2-2.16h0a2.1,2.1,0,0,1,2,2.16Z"/><path class="cls-18" d="M86.67,40.15a2.1,2.1,0,0,1-2,2.16h0a2.09,2.09,0,0,1-2-2.16v-38a2.09,2.09,0,0,1,2-2.16h0a2.1,2.1,0,0,1,2,2.16Z"/><path class="cls-19" d="M82.62,40.15a2.1,2.1,0,0,0,2,2.16h0a2.1,2.1,0,0,0,2-2.16v-38a2.1,2.1,0,0,0-2-2.16h0a2.1,2.1,0,0,0-2,2.16Z"/><path class="cls-20" d="M92.94,40.15a2.1,2.1,0,0,1-2,2.16h0a2.1,2.1,0,0,1-2-2.16v-38a2.1,2.1,0,0,1,2-2.16h0a2.1,2.1,0,0,1,2,2.16Z"/><path class="cls-21" d="M92.94,40.15a2.1,2.1,0,0,1-2,2.16h0a2.1,2.1,0,0,1-2-2.16v-38a2.1,2.1,0,0,1,2-2.16h0a2.1,2.1,0,0,1,2,2.16Z"/><path class="cls-22" d="M88.89,40.15a2.09,2.09,0,0,0,2,2.16h0a2.1,2.1,0,0,0,2-2.16v-38a2.1,2.1,0,0,0-2-2.16h0a2.09,2.09,0,0,0-2,2.16Z"/><path class="cls-23" d="M126.59,40.15a2.09,2.09,0,0,1-2,2.16h0a2.1,2.1,0,0,1-2-2.16v-38a2.1,2.1,0,0,1,2-2.16h0a2.09,2.09,0,0,1,2,2.16Z"/><path class="cls-24" d="M126.59,40.15a2.09,2.09,0,0,1-2,2.16h0a2.1,2.1,0,0,1-2-2.16v-38a2.1,2.1,0,0,1,2-2.16h0a2.09,2.09,0,0,1,2,2.16Z"/><path class="cls-25" d="M122.54,40.15a2.1,2.1,0,0,0,2,2.16h0a2.1,2.1,0,0,0,2-2.16v-38a2.1,2.1,0,0,0-2-2.16h0a2.1,2.1,0,0,0-2,2.16Z"/><path class="cls-26" d="M132.86,40.15a2.09,2.09,0,0,1-2,2.16h0a2.1,2.1,0,0,1-2-2.16v-38a2.1,2.1,0,0,1,2-2.16h0a2.09,2.09,0,0,1,2,2.16Z"/><path class="cls-27" d="M132.86,40.15a2.09,2.09,0,0,1-2,2.16h0a2.1,2.1,0,0,1-2-2.16v-38a2.1,2.1,0,0,1,2-2.16h0a2.09,2.09,0,0,1,2,2.16Z"/><path class="cls-28" d="M128.81,40.15a2.1,2.1,0,0,0,2,2.16h0a2.1,2.1,0,0,0,2-2.16v-38a2.1,2.1,0,0,0-2-2.16h0a2.1,2.1,0,0,0-2,2.16Z"/><path class="cls-29" d="M166.52,40.15a2.1,2.1,0,0,1-2,2.16h0a2.1,2.1,0,0,1-2-2.16v-38a2.1,2.1,0,0,1,2-2.16h0a2.1,2.1,0,0,1,2,2.16Z"/><path class="cls-30" d="M166.52,40.15a2.1,2.1,0,0,1-2,2.16h0a2.1,2.1,0,0,1-2-2.16v-38a2.1,2.1,0,0,1,2-2.16h0a2.1,2.1,0,0,1,2,2.16Z"/><path class="cls-31" d="M162.46,40.15a2.1,2.1,0,0,0,2,2.16h0a2.1,2.1,0,0,0,2-2.16v-38a2.1,2.1,0,0,0-2-2.16h0a2.1,2.1,0,0,0-2,2.16Z"/><path class="cls-32" d="M172.79,40.15a2.1,2.1,0,0,1-2,2.16h0a2.1,2.1,0,0,1-2-2.16v-38a2.1,2.1,0,0,1,2-2.16h0a2.1,2.1,0,0,1,2,2.16Z"/><path class="cls-33" d="M172.79,40.15a2.1,2.1,0,0,1-2,2.16h0a2.1,2.1,0,0,1-2-2.16v-38a2.1,2.1,0,0,1,2-2.16h0a2.1,2.1,0,0,1,2,2.16Z"/><path class="cls-34" d="M168.73,40.15a2.1,2.1,0,0,0,2,2.16h0a2.1,2.1,0,0,0,2-2.16v-38a2.1,2.1,0,0,0-2-2.16h0a2.1,2.1,0,0,0-2,2.16Z"/><path class="cls-35" d="M206.44,40.15a2.1,2.1,0,0,1-2,2.16h0a2.1,2.1,0,0,1-2-2.16v-38a2.1,2.1,0,0,1,2-2.16h0a2.1,2.1,0,0,1,2,2.16Z"/><path class="cls-36" d="M206.44,40.15a2.1,2.1,0,0,1-2,2.16h0a2.1,2.1,0,0,1-2-2.16v-38a2.1,2.1,0,0,1,2-2.16h0a2.1,2.1,0,0,1,2,2.16Z"/><path class="cls-37" d="M202.38,40.15a2.1,2.1,0,0,0,2,2.16h0a2.1,2.1,0,0,0,2-2.16v-38a2.1,2.1,0,0,0-2-2.16h0a2.1,2.1,0,0,0-2,2.16Z"/><path class="cls-38" d="M212.71,40.15a2.1,2.1,0,0,1-2,2.16h0a2.1,2.1,0,0,1-2-2.16v-38a2.1,2.1,0,0,1,2-2.16h0a2.1,2.1,0,0,1,2,2.16Z"/><path class="cls-39" d="M212.71,40.15a2.1,2.1,0,0,1-2,2.16h0a2.1,2.1,0,0,1-2-2.16v-38a2.1,2.1,0,0,1,2-2.16h0a2.1,2.1,0,0,1,2,2.16Z"/><path class="cls-40" d="M208.65,40.15a2.1,2.1,0,0,0,2,2.16h0a2.1,2.1,0,0,0,2-2.16v-38a2.1,2.1,0,0,0-2-2.16h0a2.1,2.1,0,0,0-2,2.16Z"/><path class="cls-41" d="M246.36,40.15a2.1,2.1,0,0,1-2,2.16h0a2.09,2.09,0,0,1-2-2.16v-38a2.09,2.09,0,0,1,2-2.16h0a2.1,2.1,0,0,1,2,2.16Z"/><path class="cls-42" d="M246.36,40.15a2.1,2.1,0,0,1-2,2.16h0a2.09,2.09,0,0,1-2-2.16v-38a2.09,2.09,0,0,1,2-2.16h0a2.1,2.1,0,0,1,2,2.16Z"/><path class="cls-43" d="M242.31,40.15a2.1,2.1,0,0,0,2,2.16h0a2.1,2.1,0,0,0,2-2.16v-38a2.1,2.1,0,0,0-2-2.16h0a2.1,2.1,0,0,0-2,2.16Z"/><path class="cls-44" d="M252.63,40.15a2.1,2.1,0,0,1-2,2.16h0a2.09,2.09,0,0,1-2-2.16v-38a2.09,2.09,0,0,1,2-2.16h0a2.1,2.1,0,0,1,2,2.16Z"/><path class="cls-45" d="M252.63,40.15a2.1,2.1,0,0,1-2,2.16h0a2.09,2.09,0,0,1-2-2.16v-38a2.09,2.09,0,0,1,2-2.16h0a2.1,2.1,0,0,1,2,2.16Z"/><path class="cls-46" d="M248.58,40.15a2.1,2.1,0,0,0,2,2.16h0a2.1,2.1,0,0,0,2-2.16v-38a2.1,2.1,0,0,0-2-2.16h0a2.1,2.1,0,0,0-2,2.16Z"/><path class="cls-47" d="M286.29,40.15a2.1,2.1,0,0,1-2,2.16h0a2.1,2.1,0,0,1-2-2.16v-38a2.1,2.1,0,0,1,2-2.16h0a2.1,2.1,0,0,1,2,2.16Z"/><path class="cls-48" d="M286.29,40.15a2.1,2.1,0,0,1-2,2.16h0a2.1,2.1,0,0,1-2-2.16v-38a2.1,2.1,0,0,1,2-2.16h0a2.1,2.1,0,0,1,2,2.16Z"/><path class="cls-49" d="M282.23,40.15a2.1,2.1,0,0,0,2,2.16h0a2.1,2.1,0,0,0,2-2.16v-38a2.1,2.1,0,0,0-2-2.16h0a2.1,2.1,0,0,0-2,2.16Z"/><path class="cls-50" d="M292.55,40.15a2.09,2.09,0,0,1-2,2.16h0a2.1,2.1,0,0,1-2-2.16v-38a2.1,2.1,0,0,1,2-2.16h0a2.09,2.09,0,0,1,2,2.16Z"/><path class="cls-51" d="M292.55,40.15a2.09,2.09,0,0,1-2,2.16h0a2.1,2.1,0,0,1-2-2.16v-38a2.1,2.1,0,0,1,2-2.16h0a2.09,2.09,0,0,1,2,2.16Z"/><path class="cls-52" d="M288.5,40.15a2.1,2.1,0,0,0,2,2.16h0a2.1,2.1,0,0,0,2-2.16v-38a2.1,2.1,0,0,0-2-2.16h0a2.1,2.1,0,0,0-2,2.16Z"/><path class="cls-53" d="M326.21,40.15a2.1,2.1,0,0,1-2,2.16h0a2.1,2.1,0,0,1-2-2.16v-38a2.1,2.1,0,0,1,2-2.16h0a2.1,2.1,0,0,1,2,2.16Z"/><path class="cls-54" d="M326.21,40.15a2.1,2.1,0,0,1-2,2.16h0a2.1,2.1,0,0,1-2-2.16v-38a2.1,2.1,0,0,1,2-2.16h0a2.1,2.1,0,0,1,2,2.16Z"/><path class="cls-55" d="M322.15,40.15a2.1,2.1,0,0,0,2,2.16h0a2.1,2.1,0,0,0,2-2.16v-38a2.1,2.1,0,0,0-2-2.16h0a2.1,2.1,0,0,0-2,2.16Z"/><path class="cls-56" d="M332.48,40.15a2.1,2.1,0,0,1-2,2.16h0a2.1,2.1,0,0,1-2-2.16v-38a2.1,2.1,0,0,1,2-2.16h0a2.1,2.1,0,0,1,2,2.16Z"/><path class="cls-57" d="M332.48,40.15a2.1,2.1,0,0,1-2,2.16h0a2.1,2.1,0,0,1-2-2.16v-38a2.1,2.1,0,0,1,2-2.16h0a2.1,2.1,0,0,1,2,2.16Z"/><path class="cls-58" d="M328.42,40.15a2.1,2.1,0,0,0,2,2.16h0a2.1,2.1,0,0,0,2-2.16v-38a2.1,2.1,0,0,0-2-2.16h0a2.1,2.1,0,0,0-2,2.16Z"/></g></g></g></svg>